<svg class="icon" viewBox="0 0 1024 1024" xmlns="http://www.w3.org/2000/svg" width="40" height="40">
  <path d="M331.6 522c.5-5.9 1.5-11.6 2.9-17.1h-.1c-1.4 5.6-2.4 11.3-2.8 17.1 0 .1 0 .1 0 0 0 .1 0 0 0 0zM443 423.2c0 .1-.1.3-.1.4 57.4 2.2 103.3 49.2 103.4 107.1v-.2c0-57.9-45.9-105-103.3-107.3z" fill="#F9D5B4"/>
  <path d="M177.7 374.9c-3.6-4.2-7.2-8.5-10.4-13.1v-28.6c.1-43.3 35.2-78.3 78.4-78.5H483v.4h126.9v-58.5c-.2-41.4-33.7-74.8-75.1-75H382.9v-.4H145.6c-43.3.1-78.3 35.2-78.4 78.5v28.6c3.2 4.6 6.8 8.9 10.4 13.1-3.7-4.2-7.2-8.5-10.5-13.1v467.9c-.1 41.5 33.5 75.2 75 75.4h25.1V361.8c3.3 4.6 6.8 8.9 10.5 13.1zm-54.1-52.1v-3.4c.1-41.4 33.7-75 75.1-75.1h3.6c-43.4 0-78.6 35.1-78.7 78.5zm386.7 369c0 7.3-4.3 13.8-11.1 16.6-6.7 2.8-14.4 1.2-19.6-3.9l-41.1-41.1-41.1 41.1c-1.6 1.6-3.5 2.9-5.7 3.8-2.2.9-4.6 1.4-7 1.4-4.8 0-9.3-1.9-12.7-5.2-1.5-1.5-2.6-3.3-3.5-5.2v.1c.9 2.1 2.2 4 3.8 5.7 3.3 3.3 7.7 5.1 12.4 5.2 2.4 0 4.8-.5 7-1.4 2.1-.9 4-2.2 5.7-3.8l41.2-41 41.1 41.1c5.1 5.1 12.9 6.7 19.6 3.9 6.7-2.8 11.1-9.3 11.1-16.6l.3-59c-.1.1-.3.2-.4.3v58zm-143-58.4v.3c21.5 14.9 46.5 22.4 71.5 22.3-25 0-50-7.5-71.5-22.6zm71.4 5.3c5 0 9.9-.5 14.8-1.2-4.8.7-9.8 1-14.8 1v.2zm76.2-31.7c.4-.4.7-.9 1.2-1.4-6.4 6.7-13.7 12.5-21.7 17.3 7.4-4.4 14.4-9.7 20.5-15.9zM98.6 110.9c-41.4.1-75 33.7-75.1 75.1v3.4c.1-43.4 35.3-78.4 78.7-78.4h-3.6zM710 330.2v155.7l26.7-113.6v-30.4c0-4 1.8-7.8 5-10.3 1.5-1.2 3.3-2 5.2-2.5l6.8-28.9c9.3-42-16.9-83.8-58.8-93.6l-42.2-10.9c-3.9-.9-8 0-11.1 2.4-3.1 2.5-5 6.3-5 10.3v46.9c40.6 1.1 73.2 34.1 73.4 74.9zm144.7 76.3c3.7-24.5-8-49.6-31.2-61.6l-25.9-13.4c-3.6-1.9-7.8-2-11.4-.3-2.4 1.1-4.2 3-5.5 5.3l14.2 3.7c32.8 7.6 55.7 34.7 59.8 66.3zM710 616.5v78.6l26.7-52V509.3z" fill="#F9D5B4"/>
  <path d="M198.7 244.4c-41.4.1-74.9 33.7-75.1 75.1v3.4c.1-43.4 35.3-78.4 78.7-78.4h-3.6zM710 485.9V330.2c-.2-40.8-32.8-73.7-73.3-74.8-.6 0-1.1-.2-1.7-.2H483v6.7c0 96-77.8 173.8-173.9 173.8-47 0-91.3-19.3-123.6-52.4l-.7-.7c-2.5-2.6-4.9-5.2-7.2-7.9-3.7-4.2-7.2-8.5-10.5-13.1v467.8c-.1 41.5 33.5 75.2 75 75.4h392.8c41.4-.1 75-33.7 75.1-75.1V485.9zM510.4 692.4c0 7.3-4.3 13.8-11.1 16.6-6.7 2.8-14.5 1.2-19.6-3.9L438.6 664l-41.2 41c-1.6 1.6-3.5 2.9-5.7 3.8-2.2.9-4.6 1.4-7 1.4-4.6-.1-9.1-1.9-12.4-5.2-1.6-1.6-2.9-3.6-3.8-5.7v-.1c-.9-2.2-1.4-4.5-1.4-6.9v-59c21.5 15 46.5 22.5 71.5 22.6 25 0 50-7.4 71.5-22.3.1-.1.3-.2.4-.3l-.1 59.1zm35.9-161.6c0 1.2-.1 2.3-.2 3.5-.1 2.5-.1 5-.4 7.4-.1 1.4-.4 2.7-.6 4-.3 2.2-.6 4.4-1 6.5-.3 1.5-.7 2.9-1.1 4.3-.5 2-.9 4-1.5 6-.4 1.3-.9 2.5-1.4 3.8-.7 2.1-1.4 4.2-2.3 6.2-.4.9-.8 1.7-1.2 2.6-1.1 2.4-2.2 4.8-3.4 7-.1.2-.3.5-.4.7-2.2 4-4.7 7.8-7.4 11.5-2.7 3.6-5.6 7.1-8.8 10.5-.2.3-.4.5-.7.8-.4.4-.7.9-1.2 1.4-6.2 6.2-13.1 11.5-20.5 16-.2.1-.4.3-.7.4-12.2 7.3-25.8 12.1-40 14.1h-.3c-4.9.7-9.8 1.2-14.8 1.2v-.5c-40.7 0-76.1-22.6-94.4-56-.1-.2-.2-.5-.4-.7-1.4-2.5-2.6-5.2-3.8-7.8-.4-.9-.7-1.7-1.1-2.6-.8-2-1.6-4.1-2.3-6.2-.5-1.5-1-3-1.4-4.6l-1.2-4.5c-.5-2.1-1-4.3-1.4-6.5-.2-.9-.3-1.8-.4-2.8-.4-2.8-.7-5.6-.9-8.4-.2-2.5-.4-5-.4-7.6 0-2.9.2-5.7.4-8.5.5-5.9 1.4-11.6 2.8-17.2 11.5-47 53.8-81.9 104.3-81.9 1.4 0 2.9.2 4.3.2 57.4 2.3 103.3 49.4 103.3 107.3.5.2.5.3.5.4zm377.3-52.5l-25.9-13.4c-3.6-1.9-7.8-2-11.4-.3-3.6 1.7-6.3 4.9-7.3 8.8l-96.3 385.9h1.2c6.6-2.8 12.2-7.5 15.9-13.6 2.4-3.2 4.7-6.7 6.6-10.2l142.7-277.3c15-29.1 3.6-64.8-25.5-79.9zm-68.9-71.8c-4.1-31.5-27-58.7-59.7-66.4l-14.2-3.7-28-7.2c-2-.5-4-.5-5.9 0-1.9.4-3.6 1.2-5.2 2.5-3.1 2.5-5 6.3-5 10.3v531h1c3.3-.9 8.7-3.8 16.5-23.3 1.5-3.8 3.4-8.9 5.2-15l94.3-400.8c2.1-9.4 2.2-18.6 1-27.4z" fill="#FF7E00"/>
  <path d="M245.7 254.8c-43.3.1-78.3 35.2-78.4 78.5v28.6c3.2 4.6 6.8 8.9 10.4 13.1 2.3 2.7 4.8 5.3 7.2 7.9l.7.7c32.3 33.1 76.6 52.4 123.6 52.4 96 0 173.9-77.8 173.9-173.8v-7.1H245.7z" fill="#FD973F"/>
</svg>
