<svg viewBox="0 0 1024 1024" xmlns="http://www.w3.org/2000/svg" width="24" height="24">
  <path d="M0 511.83a511.83 511.83 0 101023.659 0A511.83 511.83 0 100 511.83z" fill="#B8D4FF"/>
  <path d="M708.03 866.015c-139.217-30.368-104.754-143.312-104.754-143.312 52.89-25.591 63.126-87.693 63.126-87.693 23.203-2.389 36.51-19.45 41.97-53.913 5.8-34.804-28.321-35.828-28.321-35.828 43.335-217.016-90.424-221.11-90.424-221.11-21.155-44.359-97.93-59.031-196.883 5.8s-52.207 216.675-52.207 216.675-24.909 0-24.568 29.003c4.095 56.984 43.335 62.102 43.335 62.102 16.038 60.396 62.785 86.67 62.785 86.67 3.412 81.21-27.298 125.569-101.684 139.218-74.044 13.649-112.261 60.396-112.602 60.396C292.766 986.807 397.862 1024 511.488 1024s218.722-37.193 303.686-99.977c0-.683-33.099-44.7-107.143-58.008z" fill="#FFF"/>
</svg>
